<svg width="512" height="512" viewBox="0 0 512 512" fill="none" xmlns="http://www.w3.org/2000/svg">
<rect width="512" height="512" rx="115" fill="url(#gradient)"/>
<defs>
<linearGradient id="gradient" x1="0" y1="0" x2="512" y2="512" gradientUnits="userSpaceOnUse">
<stop offset="0%" stop-color="#8B5CF6"/>
<stop offset="100%" stop-color="#6366F1"/>
</linearGradient>
</defs>
<path d="M320 140C320 129.507 320 124.26 322.346 120.411C324.397 117.04 327.54 114.397 331.411 112.346C335.26 110 340.507 110 351 110C361.493 110 366.74 110 370.589 112.346C374.46 114.397 377.603 117.04 379.654 120.411C382 124.26 382 129.507 382 140V280C382 302.091 364.091 320 342 320C319.909 320 302 302.091 302 280C302 257.909 319.909 240 342 240C348.627 240 354.831 241.791 360.236 244.944C361.346 245.613 362.431 246.344 363.486 247.134C368.822 251.094 373 256.944 373 264V140H320Z" fill="white" fill-opacity="0.95"/>
<g opacity="0.9">
<rect x="130" y="200" width="140" height="16" rx="8" fill="white"/>
<rect x="130" y="240" width="100" height="16" rx="8" fill="white" fill-opacity="0.8"/>
<rect x="130" y="280" width="120" height="16" rx="8" fill="white" fill-opacity="0.6"/>
<rect x="130" y="320" width="90" height="16" rx="8" fill="white" fill-opacity="0.4"/>
</g>
<circle cx="115" cy="208" r="6" fill="white" fill-opacity="0.7"/>
<circle cx="115" cy="248" r="6" fill="white" fill-opacity="0.7"/>
<circle cx="115" cy="288" r="6" fill="white" fill-opacity="0.7"/>
<circle cx="115" cy="328" r="6" fill="white" fill-opacity="0.7"/>
</svg>
