<svg width="512" height="512" viewBox="0 0 800 800" fill="none" xmlns="http://www.w3.org/2000/svg">
<path d="M 239.8 239.9998 C 239.8 228.9544 248.7544 220 259.7998 220 H 480.2002 C 491.2456 220 500.2 228.9544 500.2 239.9998 V 519.8002 C 500.2 530.8456 491.2456 539.8 480.2002 539.8 H 259.7998 C 248.7544 539.8 239.8 530.8456 239.8 519.8002 V 239.9998 Z" fill="#582736" fill-opacity="0.9"/>
<path d="M 560.0002 419.9998 H 500.0002 V 539.9998" stroke="#E55C8B" stroke-width="40" stroke-linecap="round" stroke-linejoin="round"/>
<path d="M 320.0002 380.0002 H 419.9998 M 320.0002 460 H 380.0002 M 460 500.0002 C 452.089 500.0002 444.355 502.3462 437.7772 506.7412 C 431.1994 511.1362 426.0724 517.3834 423.0448 524.6926 C 420.0172 532.0018 419.2252 540.0442 420.7684 547.8034 C 422.3122 555.5626 426.1216 562.69 431.716 568.2844 C 437.3098 573.8782 444.4372 577.6882 452.1964 579.2314 C 459.9556 580.7746 467.998 579.9826 475.3072 576.955 C 482.6164 573.9274 488.8636 568.801 493.2586 562.2226 C 497.6542 555.6448 500.0002 547.9114 500.0002 539.9998 C 500.0002 529.3912 495.7858 519.217 488.284 511.7158 C 480.7828 504.214 470.6086 500.0002 460 500.0002 Z" stroke="#E55C8B" stroke-width="40" stroke-linecap="round" stroke-linejoin="round"/>
<path d="M 340 539.9998 H 260.0002 C 254.6956 539.9998 249.6088 537.8926 245.8576 534.142 C 242.107 530.3914 239.9998 525.3046 239.9998 520 V 239.9998 C 239.9998 234.6958 242.107 229.6084 245.8576 225.8578 C 249.6088 222.1072 254.6956 220 260.0002 220 H 479.9998 C 485.3044 220 490.3912 222.1072 494.1424 225.8578 C 497.893 229.6084 500.0002 234.6958 500.0002 239.9998 V 340" stroke="#E55C8B" stroke-width="40" stroke-linecap="round" stroke-linejoin="round"/>
</svg>
